<?xml version="1.0" encoding="utf-8"?>
<svg fill="#000000" width="800px" height="800px" viewBox="0 0 64 64" version="1.1" xmlns="http://www.w3.org/2000/svg" style="fill-rule:evenodd;clip-rule:evenodd;stroke-linejoin:round;stroke-miterlimit:2;">
  <g transform="matrix(1,0,0,1,-1088,-192)">
    <rect id="Icons" x="0" y="0" width="1280" height="800" style="fill:none;"/>
    <g id="Icons1">
      <g id="Strike"/>
      <g id="H1"/>
      <g id="H2"/>
      <g id="H3"/>
      <g id="list-ul"/>
      <g id="hamburger-1"/>
      <g id="hamburger-2" transform="matrix(1.50868,0,0,1.01217,70.647,191.772)">
        <g transform="matrix(0.149202, 0, 0, 0.173437, 664.398264, 42.141999)">
          <rect x="103.288" y="8.535" width="71.218" height="34.133" rx="17.0665" style="fill-rule: nonzero; fill: rgb(255, 255, 255);"/>
        </g>
        <g transform="matrix(0.149202,0,0,0.173437,664.345,27.4)">
          <rect x="103.288" y="8.535" width="141.366" height="34.133" rx="17.0665" style="fill-rule: nonzero; fill: rgb(255, 255, 255);"/>
        </g>
        <g transform="matrix(0.149202,0,0,0.173437,664.345,12.658)">
          <rect x="103.288" y="8.535" width="212.447" height="34.133" rx="17.0665" style="fill-rule: nonzero; fill: rgb(255, 255, 255);"/>
        </g>
      </g>
      <g id="list-ol"/>
      <g id="list-task"/>
      <g id="trash"/>
      <g id="vertical-menu"/>
      <g id="horizontal-menu"/>
      <g id="sidebar-2"/>
      <g id="Pen"/>
      <g id="Pen1"/>
      <g id="clock"/>
      <g id="external-link"/>
      <g id="hr"/>
      <g id="info"/>
      <g id="warning"/>
      <g id="plus-circle"/>
      <g id="minus-circle"/>
      <g id="vue"/>
      <g id="cog"/>
      <g id="logo"/>
      <g id="radio-check"/>
      <g id="eye-slash"/>
      <g id="eye"/>
      <g id="toggle-off"/>
      <g id="shredder"/>
      <g id="spinner--loading--dots-"/>
      <g id="react"/>
      <g id="check-selected"/>
      <g id="turn-off"/>
      <g id="code-block"/>
      <g id="user"/>
      <g id="coffee-bean"/>
      <g transform="matrix(0.638317,0.368532,-0.368532,0.638317,785.021,-208.975)">
        <g id="coffee-beans">
          <g id="coffee-bean1"/>
        </g>
      </g>
      <g id="coffee-bean-filled"/>
      <g transform="matrix(0.638317,0.368532,-0.368532,0.638317,913.062,-208.975)">
        <g id="coffee-beans-filled">
          <g id="coffee-bean2"/>
        </g>
      </g>
      <g id="clipboard"/>
      <g transform="matrix(1,0,0,1,128.011,1.35415)">
        <g id="clipboard-paste"/>
      </g>
      <g id="clipboard-copy"/>
      <g id="Layer1"/>
    </g>
  </g>
</svg>
